<svg xmlns="http://www.w3.org/2000/svg" viewBox="0 0 100 100"><rect width="100" height="100" rx="22" fill="#1F9AD6"/><g transform="translate(10 8) scale(0.8)"><path fill="#0C0F12" fill-rule="evenodd" d="M44 10 H56 V90 H44 Z M56 10 H66 A18.5 18.5 0 0 1 66 47 H56 Z M56 47 H64 A21.5 21.5 0 0 1 64 90 H56 Z M56 20 H66 A8.5 8.5 0 0 1 66 37 H56 Z M56 57 H64 A11.5 11.5 0 0 1 64 80 H56 Z M44 10 H34 A18.5 18.5 0 0 0 34 47 H44 Z M44 47 H36 A21.5 21.5 0 0 0 36 90 H44 Z M44 20 H34 A8.5 8.5 0 0 0 34 37 H44 Z M44 57 H36 A11.5 11.5 0 0 0 36 80 H44 Z"/></g></svg>
